<svg width="48" height="48" viewBox="0 0 48 48" fill="none" xmlns="http://www.w3.org/2000/svg">
<g clip-path="url(#clip0_16_1353)">
<path d="M12 48C12 48 9 48 9 45C9 42 12 33 24 33C36 33 39 42 39 45C39 48 36 48 36 48H12ZM24 30.15C25.9891 30.15 27.8968 29.3598 29.3033 27.9533C30.7098 26.5468 31.5 24.6391 31.5 22.65C31.5 20.6609 30.7098 18.7532 29.3033 17.3467C27.8968 15.9402 25.9891 15.15 24 15.15C22.0109 15.15 20.1032 15.9402 18.6967 17.3467C17.2902 18.7532 16.5 20.6609 16.5 22.65C16.5 24.6391 17.2902 26.5468 18.6967 27.9533C20.1032 29.3598 22.0109 30.15 24 30.15Z" fill="#D9D9D9"/>
<path d="M6 3C4.4087 3 2.88258 3.63214 1.75736 4.75736C0.632141 5.88258 0 7.4087 0 9L0 37.5C0 38.6935 0.474106 39.8381 1.31802 40.682C2.16193 41.5259 3.30653 42 4.5 42H6.459C7.08627 39.7954 8.17652 37.7499 9.657 36H3V9C3 8.20435 3.31607 7.44129 3.87868 6.87868C4.44129 6.31607 5.20435 6 6 6H42C42.7957 6 43.5587 6.31607 44.1213 6.87868C44.6839 7.44129 45 8.20435 45 9V36H38.343C40.005 37.962 41.013 40.119 41.541 42H43.5C44.6935 42 45.8381 41.5259 46.682 40.682C47.5259 39.8381 48 38.6935 48 37.5V9C48 7.4087 47.3679 5.88258 46.2426 4.75736C45.1174 3.63214 43.5913 3 42 3H6Z" fill="#D9D9D9"/>
</g>
<defs>
<clipPath id="clip0_16_1353">
<rect width="48" height="48" fill="white"/>
</clipPath>
</defs>
</svg>
